<svg xmlns="http://www.w3.org/2000/svg" viewBox="0 0 283.46 283.46">
	<style>
		<![CDATA[
		#A{  position: relative;
		opacity: 0;
		animation: fadeDown 2s;
		animation-fill-mode: forwards;}#B{  position: relative;
		opacity: 0;
		animation: fadeDown 2s 0.35s;
		animation-fill-mode: forwards;}#C{  position: relative;
		opacity: 0;
		animation: fadeDown 2s 0.70s;
		animation-fill-mode: forwards;}#D{  position: relative;
		opacity: 0;
		animation: fadeUp 2s 1.1s;
		animation-fill-mode: forwards;}@keyframes fadeDown{from{opacity:0;transform:translate(0px,-10px)}to{opacity:1;transform:translate(0px,0)}} @keyframes fadeUp{from{opacity:0;transform:translate(0px,10px)}to{opacity:1;transform:translate(0px,0)}}.D{fill:#fff}.E{stroke:#141414}.F{stroke-width:.1}.G{font-family:MyriadPro-Regular}
		]]>
	</style>
	<path id="A" d="M63.14 92.58l1.28-4.76H60.2l1.12 1.4-3.57 13.35h2.7l1.46-5.43 2.78 7.34 3.6 1.77-4.24-11.17 7.67-8.6h-3.14l-5.44 6.1zm-3.53-3.13a1.17 1.17 0 0 0-.36-1.25c-.3-.27-.7-.4-1.2-.4h-8.2l1.28 1.57-3.1 11.57a1.16 1.16 0 0 0 .31 1.21c.28.27.7.4 1.23.4h4.8c.48 0 .9-.1 1.3-.34.4-.24.67-.58.8-1l1.12-4.13-3.12 1.44-.52 1.95h-3.1l2.83-10.54h3.1l-.5 1.84L58.64 93l.97-3.56zm-15.74 11.02h-3.5l2.83-10.54h3.5l-2.83 10.54zm4.1-12.67h-8.73l1.35 1.66-3.07 11.48c-.12.5-.01.9.34 1.2.28.27.7.4 1.23.4h5.2c.48 0 .9-.1 1.3-.34.42-.25.68-.6.8-1l3.16-11.77a1.18 1.18 0 0 0-.34-1.24c-.34-.26-.75-.4-1.23-.4zm-13.1 6.14h-3.2l1.08-4.02h3.2l-1.08 4.02zm2.38-6.14H28.9l1.28 1.57-3.52 13.2h2.7l2.1-7.87 1.66 7.92 3.54 3.63-.94-4.37-.37-1.75-.37-1.66-.33-1.42-.2-1.02c.07 0 .14 0 .2.01s.1.01.16.01c1.48 0 2.34-.46 2.58-1.37l1.4-5.22c.15-.5.04-.92-.34-1.2-.3-.3-.7-.44-1.2-.44z" opacity="0" class="D E F" />
	<path d="M123.03 95h-3l1.37-5.07h3L123.03 95zm2.65-7.2h-8.3l1.4 1.73-3.48 13.03h2.7l1.46-5.43h4c.5 0 .93-.12 1.3-.36a1.75 1.75 0 0 0 .8-1l1.7-6.32c.1-.5-.01-.92-.34-1.24-.33-.27-.74-.4-1.22-.4zm-13.5 9.62h-1.97l2.18-4.44-.2 4.44zm-1.44-9.6l1.08 1.35-6.86 13.44h2.78l1.46-3.05h2.85l-.16 3.05 2.58 3.68.52-18.46h-4.25zm-7.72 6.12h-3.2l1.08-4.02h3.2l-1.08 4.02zm2.38-6.14h-8.34l1.28 1.57-3.52 13.2h2.7l2.1-7.87 1.66 7.92 3.54 3.63-.94-4.37-.37-1.75-.37-1.66-.33-1.42-.2-1.02c.07 0 .14 0 .2.01s.1.01.16.01c1.48 0 2.34-.46 2.58-1.37l1.4-5.22c.15-.5.04-.92-.34-1.2-.3-.3-.7-.44-1.2-.44zm21.6 7.96h5.54v1.46H127zm42.36-3.18l1.28-4.76h-4.2l1.12 1.4-3.57 13.35h2.7l1.46-5.43 2.78 7.34 3.6 1.77-4.24-11.17 7.67-8.6h-3.14l-5.45 6.1zm-3.53-3.13a1.17 1.17 0 0 0-.36-1.25c-.3-.27-.7-.4-1.2-.4h-8.2l1.28 1.57-3.1 11.57a1.16 1.16 0 0 0 .31 1.21c.28.27.7.4 1.23.4h4.8c.48 0 .9-.1 1.3-.34a1.75 1.75 0 0 0 .8-1l1.12-4.13-3.12 1.44-.52 1.95h-3.1l2.83-10.54h3.1l-.5 1.84 2.38 1.26.97-3.56zm-15.74 11.02h-3.5l2.83-10.54h3.5l-2.83 10.54zm4.1-12.67h-8.73l1.35 1.66-3.07 11.48c-.12.5-.01.9.34 1.2.28.27.7.4 1.23.4h5.2c.48 0 .9-.1 1.3-.34.42-.25.68-.6.8-1l3.16-11.77a1.18 1.18 0 0 0-.34-1.24c-.34-.26-.75-.4-1.23-.4zm-13.1 6.14h-3.2l1.08-4.02h3.2l-1.08 4.02zm2.38-6.14h-8.34l1.28 1.57-3.52 13.2h2.7l2.1-7.87 1.66 7.92 3.54 3.63-.94-4.37-.37-1.75-.37-1.66-.33-1.42-.2-1.02c.07 0 .14 0 .2.01s.1.01.16.01c1.48 0 2.34-.46 2.58-1.37l1.4-5.22c.15-.5.04-.92-.34-1.2-.3-.3-.7-.44-1.2-.44z" id="B" opacity="0" class="D E F" />
	<path d="M216.6 100.47h-3.36l3.4-12.65h-4.1l1.05 1.3-3.16 11.82a1.16 1.16 0 0 0 .31 1.21c.28.27.7.4 1.23.4h5.07c.48 0 .9-.1 1.3-.34s.67-.58.78-1l3.6-13.4h-2.7l-3.38 12.66zm-10.14-4.37l-1.86-8.28h-3.8l1.35 1.64-4.53 16.78 3.34-2.7 2.56-9.44 1.9 8.46h1.95l3.95-14.74h-2.62l-2.24 8.27zm15.44-.34h5.54v1.46h-5.54zm52.02-7.94h-4.58l1.4 1.73-3.5 13h7.02l2.78-2.1h-6.53l3.4-12.65zm-10.14 9.6h-1.97l2.18-4.44-.2 4.44zm-1.44-9.6l1.08 1.35-6.86 13.44h2.78l1.46-3.05h2.85l-.16 3.05 2.58 3.68.52-18.46h-4.25zm-11.06 3.84l1.88-1.73h1.5l-4.4 16.3 3.72-3.68 3.4-12.63h2l.5 1.6.96-3.72h-8.5l-1.04 3.86zm-9.3-3.86l1.64 2.02-3.4 12.74h8.37l-.63-2.1h-4.46l1.17-4.33h2.67L249.2 94h-4l1.1-4.08h3.07l1.88-2.13h-9.3zm-7.53 7.96l-.56-7.94h-4.35l1.46 1.8-4.5 16.76 3.66-3.8 1.86-6.9.52 5.6h1.08l3.37-5.36-1.77 6.64h2.6l3.95-14.74h-2.5l-4.82 7.94z" id="C" opacity="0" class="D E F" />
	<path d="M237.1 151.83l6.3-5.78h5.03l-14.7 54.56 12.46-12.3 11.33-42.25h6.68l1.65 5.33 3.23-12.46h-28.44l-3.53 12.9zm-36.32-12.9l4.73 5.86-2.1 8.04c-.5 1.75-.1 3.43 1.2 5.04l12.53 14.58-2.4 8.87H195.3L191 188.3h25.22c1.6 0 3.05-.38 4.35-1.13 1.35-.95 2.2-2.08 2.55-3.38l2.85-10.58c.5-1.85.12-3.53-1.13-5.03l-12.6-14.63 2.03-7.5h16.3l4.35-7.13h-34.14zm-19.5.08l4.43 5.48-11.7 43.83h9.08l13.2-49.3h-15zm-17.86 0h-15.3l4.73 5.78-11.7 43.53h23.5l9.3-6.98h-21.84L163.4 139zm-38.65 19.66l-2.1-19.66h-12.6l4.05 4.95 3.53 24.7-5.33 19.66h9.08l5.1-18.76 1.24-2.1 1.54-2.4 2.2-3.23 3.2-4.6 10.6-15.5.75-2.7h-8.78l-12.46 19.66zM98.4 171.12h-6.6l7.28-14.86-.68 14.86zM93.6 139l3.6 4.5-22.96 44.95h9.3l4.88-10.2h9.53l-.53 10.2 8.63 12.3L107.8 139H93.6zm-28.8 0h-15.3l4.73 5.78-11.7 43.52H66l9.3-6.98H53.46L64.8 139zm-32.2 24H22.54l4.58-16.96h10.06L32.6 163zm8.86-24.1H13.68l4.65 5.8L6.7 188.3h9.08l4.88-18.16h13.36c1.65 0 3.1-.4 4.35-1.2 1.35-.8 2.23-1.93 2.63-3.4l5.7-21.14c.35-1.7-.03-3.08-1.13-4.14-1.14-.9-2.52-1.35-4.12-1.35z" id="D" opacity="0" class="D E F" />
	<path d="M271.37 127.32H20.88l2.82-11.26h251.06z" class="D E F" />
	<text transform="matrix(1.5979 -.4944 .2956 .9553 79.3589 103.3357)" font-size="21.157" class="D G">
		/
	</text>
	<text transform="matrix(1.5979 -.4944 .2956 .9553 183.2833 103.3365)" font-size="21.157" class="D G">
		/
	</text>
</svg>
