<?xml version="1.0" standalone="no"?>
<!DOCTYPE svg PUBLIC "-//W3C//DTD SVG 20010904//EN"
 "http://www.w3.org/TR/2001/REC-SVG-20010904/DTD/svg10.dtd">
<svg version="1.0" xmlns="http://www.w3.org/2000/svg"
 width="1024.000000pt" height="1024.000000pt" viewBox="0 0 1024.000000 1024.000000"
 preserveAspectRatio="xMidYMid meet">
<metadata>
Created by potrace 1.11, written by Peter Selinger 2001-2013
</metadata>
<g transform="translate(0.000000,1024.000000) scale(0.100000,-0.100000)"
fill="#000000" stroke="none">
<path d="M3440 9250 c0 -4 -11 -7 -25 -5 -14 1 -25 -1 -25 -4 0 -6 -17 -10
-57 -13 -7 -1 -13 -5 -13 -10 0 -4 -3 -7 -7 -6 -14 4 -53 -13 -53 -23 0 -5 -9
-9 -21 -9 -11 0 -17 -4 -14 -10 3 -5 -1 -10 -9 -10 -9 0 -16 -4 -16 -10 0 -5
-7 -10 -15 -10 -8 0 -15 -7 -15 -15 0 -9 -7 -18 -15 -21 -8 -4 -12 -10 -9 -15
3 -5 1 -9 -4 -9 -5 0 -17 -16 -28 -35 -10 -19 -21 -35 -24 -35 -3 0 -6 -8 -7
-17 -1 -28 -14 -94 -22 -117 -5 -12 -7 -30 -6 -41 5 -44 16 -89 27 -109 6 -11
11 -22 10 -23 -10 -14 3 -55 23 -77 13 -14 21 -26 18 -26 -3 0 4 -8 15 -19 12
-10 19 -21 15 -25 -3 -3 0 -6 7 -6 7 0 11 -2 8 -5 -3 -3 6 -18 21 -34 14 -15
40 -45 56 -66 17 -22 39 -49 50 -61 11 -12 25 -28 30 -36 29 -43 109 -138 117
-138 4 0 8 -6 8 -12 0 -7 15 -29 33 -48 61 -64 70 -85 57 -124 -6 -19 -13 -47
-16 -63 -2 -15 -7 -35 -11 -43 -9 -21 -9 -20 -18 -65 -4 -22 -11 -44 -15 -50
-4 -5 -6 -18 -5 -27 2 -10 -1 -20 -6 -24 -5 -3 -7 -10 -4 -15 4 -5 1 -9 -5 -9
-6 0 -8 -5 -5 -10 4 -6 1 -17 -5 -25 -7 -8 -10 -21 -7 -29 3 -8 3 -17 -1 -20
-3 -4 -7 -13 -9 -21 -5 -27 -11 -50 -13 -52 -3 -3 -4 -7 -14 -48 -4 -16 -10
-37 -13 -45 -3 -8 -7 -28 -9 -44 -3 -17 -8 -32 -12 -35 -4 -4 -8 -15 -9 -26
-3 -24 -11 -60 -13 -60 -1 0 -3 -7 -5 -15 -1 -8 -8 -35 -16 -60 -18 -65 -20
-73 -22 -95 -2 -11 -6 -25 -9 -31 -8 -12 -19 -60 -21 -86 -1 -10 -4 -18 -7
-18 -4 0 -7 -6 -8 -12 0 -7 -3 -24 -7 -38 -4 -14 -8 -33 -8 -42 -1 -10 -4 -18
-7 -18 -4 0 -7 -6 -7 -12 0 -7 -6 -33 -13 -58 -7 -25 -14 -54 -17 -65 -8 -38
-11 -50 -13 -50 -1 0 -4 -13 -6 -30 -3 -16 -8 -32 -12 -35 -4 -3 -8 -12 -9
-20 -1 -8 -4 -26 -8 -40 -3 -14 -8 -36 -11 -50 -3 -14 -7 -29 -9 -35 -1 -5 -6
-25 -10 -42 -4 -18 -10 -33 -14 -33 -4 0 -7 -8 -8 -17 -1 -10 -4 -31 -8 -48
-4 -16 -7 -36 -7 -42 -1 -7 -5 -13 -9 -13 -4 0 -6 -8 -5 -17 2 -10 -1 -25 -5
-33 -4 -8 -11 -28 -15 -45 -4 -16 -8 -32 -9 -35 -1 -3 -5 -23 -10 -45 -5 -22
-10 -42 -11 -45 -1 -3 -5 -20 -9 -37 -4 -18 -11 -33 -16 -33 -5 0 -6 -7 -3
-15 4 -8 1 -22 -6 -30 -7 -8 -10 -15 -7 -15 3 0 -3 -29 -13 -65 -10 -36 -16
-65 -13 -65 3 0 0 -6 -6 -14 -6 -7 -12 -25 -13 -40 -1 -14 -6 -26 -10 -26 -4
0 -5 -9 -3 -20 2 -11 -1 -22 -6 -25 -5 -4 -7 -10 -4 -15 3 -5 1 -11 -5 -15 -6
-4 -8 -11 -5 -16 4 -5 3 -15 -2 -21 -8 -13 -12 -29 -15 -60 -1 -10 -6 -18 -11
-18 -4 0 -5 -4 -2 -10 3 -5 3 -16 -2 -22 -4 -7 -9 -22 -11 -33 -5 -29 -10 -50
-12 -50 -1 0 -3 -8 -6 -17 -2 -10 -6 -26 -8 -35 -3 -10 -5 -18 -6 -18 -2 0
-10 -35 -13 -60 -2 -12 -6 -26 -10 -32 -4 -6 -8 -23 -9 -37 -1 -14 -5 -26 -9
-26 -3 0 -6 -10 -5 -22 1 -13 -4 -29 -11 -36 -7 -8 -11 -24 -9 -38 3 -13 1
-24 -4 -24 -4 0 -12 -19 -16 -42 -4 -24 -8 -45 -9 -48 -1 -3 -5 -18 -9 -35 -4
-16 -10 -37 -13 -45 -3 -8 -7 -19 -8 -25 -2 -5 -8 -30 -15 -55 -7 -25 -14 -54
-16 -65 -1 -11 -3 -22 -5 -25 -1 -3 -3 -9 -4 -15 -1 -5 -5 -17 -8 -25 -16 -40
-35 -119 -30 -124 4 -3 1 -6 -5 -6 -6 0 -9 -6 -6 -14 3 -8 0 -17 -5 -21 -6 -3
-9 -11 -6 -16 4 -5 3 -15 -2 -21 -9 -16 -20 -61 -22 -96 -1 -7 -4 -11 -8 -9
-5 3 -9 -5 -10 -16 -3 -37 -10 -81 -17 -99 -3 -10 -9 -26 -13 -35 -8 -23 -13
-43 -15 -65 -1 -10 -6 -18 -11 -18 -4 0 -6 -4 -3 -8 3 -5 -2 -31 -10 -58 -9
-27 -16 -56 -16 -64 -1 -8 -5 -20 -10 -27 -5 -6 -10 -26 -10 -43 -1 -17 -5
-33 -10 -36 -4 -3 -8 -14 -8 -25 0 -11 -3 -18 -7 -16 -5 3 -8 -9 -7 -26 0 -17
-7 -52 -16 -78 -10 -26 -15 -50 -12 -53 3 -3 1 -6 -4 -6 -6 0 -10 -12 -9 -27
0 -16 -3 -31 -7 -34 -4 -3 -9 -17 -10 -32 -1 -15 -6 -27 -10 -27 -4 0 -5 -9
-3 -20 2 -11 1 -20 -3 -20 -7 0 -12 -25 -15 -67 0 -7 -5 -13 -10 -13 -5 0 -7
-7 -4 -15 4 -8 2 -17 -4 -20 -5 -4 -7 -11 -4 -16 4 -5 2 -9 -3 -9 -5 0 -8 -11
-7 -25 2 -14 -2 -25 -8 -25 -5 0 -8 -3 -5 -6 4 -3 2 -20 -3 -37 -17 -54 -37
-129 -45 -166 -3 -13 -10 -33 -15 -44 -9 -15 -8 -18 3 -11 10 6 11 5 1 -8 -7
-8 -10 -18 -6 -21 3 -4 1 -7 -6 -7 -8 0 -11 -6 -7 -17 4 -9 2 -19 -3 -23 -6
-3 -11 -20 -13 -38 -1 -18 -6 -32 -10 -32 -4 0 -5 -9 -3 -20 2 -11 0 -20 -4
-20 -4 0 -8 -6 -9 -12 -2 -29 -14 -73 -23 -84 -5 -6 -7 -13 -4 -16 3 -2 -1
-26 -9 -51 -8 -26 -12 -47 -9 -47 3 0 -2 -11 -11 -25 -9 -14 -15 -29 -12 -33
2 -4 -2 -34 -9 -67 -15 -62 -14 -70 6 -172 7 -36 17 -60 22 -56 6 3 7 1 4 -5
-7 -11 23 -72 36 -72 4 0 7 -6 7 -14 0 -8 7 -16 15 -20 8 -3 15 -13 15 -21 0
-9 4 -14 9 -11 5 4 11 2 13 -2 6 -16 109 -83 118 -77 5 3 11 1 15 -4 3 -5 14
-8 25 -6 11 2 20 -1 20 -7 0 -6 11 -8 24 -6 14 3 27 0 29 -6 5 -12 1172 -14
1232 -2 40 7 116 26 135 33 8 4 19 5 23 4 4 0 10 6 13 14 4 8 12 15 19 15 16
0 115 94 115 109 0 5 9 19 20 29 11 11 22 34 25 51 2 18 9 39 15 46 7 8 10 18
7 22 -3 4 0 19 6 33 10 26 12 33 21 89 3 19 9 37 14 40 5 3 8 16 7 29 -1 12 3
22 8 22 6 0 8 2 5 5 -3 3 3 36 14 73 11 37 21 76 24 87 6 31 12 56 24 100 6
22 12 45 13 50 1 6 6 16 10 23 5 6 6 12 3 12 -3 0 -1 11 4 25 5 14 12 36 15
48 6 29 21 84 33 125 6 17 8 32 5 32 -3 0 0 7 7 15 7 8 10 15 6 15 -3 0 -1 11
4 25 5 14 12 38 15 53 8 38 13 57 15 57 1 0 3 7 5 15 2 8 6 25 9 38 3 12 8 30
10 40 2 9 16 58 30 109 14 50 28 102 30 115 3 13 5 23 6 23 1 0 3 7 5 15 2 8
9 33 15 55 6 22 13 51 16 64 3 14 7 29 10 33 3 5 8 24 11 41 3 18 9 40 14 50
6 9 7 22 4 27 -3 6 -2 10 2 10 5 0 9 8 10 18 0 9 4 28 8 42 4 14 7 31 7 38 2
20 18 13 18 -8 0 -11 0 -21 1 -22 10 -37 26 -135 23 -140 -3 -4 -1 -8 4 -8 9
0 11 -8 14 -60 1 -16 5 -30 9 -30 4 0 6 -9 4 -20 -2 -11 1 -22 6 -25 5 -4 7
-11 4 -16 -4 -5 -3 -15 1 -21 5 -7 9 -19 11 -28 1 -8 4 -28 7 -45 3 -16 7 -41
11 -55 3 -14 7 -38 9 -55 1 -16 7 -39 12 -50 6 -11 9 -30 8 -42 0 -13 2 -23 6
-23 5 0 7 -15 6 -34 -1 -19 2 -32 7 -29 5 3 7 -1 6 -8 -1 -8 1 -25 4 -39 4
-14 9 -37 12 -52 3 -16 8 -40 11 -55 3 -16 6 -36 7 -45 1 -10 5 -18 9 -18 4 0
7 -3 6 -7 -2 -8 10 -95 18 -128 3 -11 7 -29 9 -40 2 -11 4 -21 5 -22 2 -2 3
-11 4 -20 1 -10 4 -22 8 -28 3 -5 5 -21 4 -35 -1 -14 1 -27 5 -30 4 -3 9 -21
12 -40 4 -19 8 -42 10 -50 2 -8 7 -36 12 -63 4 -26 10 -49 14 -52 4 -2 6 -18
5 -34 -1 -17 1 -31 5 -31 4 0 8 -12 9 -28 3 -28 9 -67 12 -67 1 0 4 -11 7 -25
7 -39 11 -55 13 -55 3 0 10 -42 12 -77 2 -20 8 -36 13 -35 6 1 9 -6 7 -15 -1
-9 8 -24 20 -32 13 -9 22 -20 21 -24 -2 -7 66 -90 97 -119 52 -48 90 -89 90
-95 0 -5 7 -8 17 -8 9 0 14 -2 11 -5 -3 -3 66 -78 153 -165 87 -88 157 -160
155 -160 -1 0 103 -107 231 -238 128 -130 233 -240 233 -244 0 -5 6 -8 14 -8
8 0 17 -8 20 -18 4 -11 18 -25 31 -32 14 -7 23 -15 21 -18 -3 -2 26 -35 64
-72 38 -37 66 -71 63 -74 -4 -3 1 -6 11 -6 9 0 14 -4 11 -10 -3 -5 -2 -10 2
-10 9 0 73 -56 73 -63 0 -10 266 -269 292 -284 15 -10 28 -21 28 -25 0 -4 6
-8 14 -8 7 0 19 -7 26 -15 7 -9 15 -13 18 -10 3 3 11 0 19 -6 9 -9 13 -8 13 0
0 9 6 8 23 -1 12 -7 29 -13 37 -13 8 0 21 -4 28 -8 6 -5 12 -6 12 -2 0 3 9 1
20 -5 14 -8 20 -8 20 0 0 6 3 9 8 6 4 -2 32 2 62 10 30 8 68 17 85 20 16 3 32
8 35 12 3 4 23 20 45 36 40 29 85 74 85 85 0 3 11 19 25 35 14 16 25 34 26 40
0 6 2 18 4 26 2 8 6 29 10 45 3 17 7 35 8 40 2 6 5 15 9 20 7 13 3 90 -9 135
-5 19 -9 42 -8 50 0 8 -3 17 -7 20 -4 3 -8 22 -10 43 -1 20 -5 37 -9 37 -3 0
-5 10 -5 22 1 13 0 28 -3 33 -3 6 -7 18 -8 27 -6 36 -8 43 -18 50 -6 5 -5 8 3
8 9 0 10 5 3 19 -6 10 -7 21 -4 25 3 3 0 6 -7 6 -7 0 -11 2 -8 5 3 3 -3 45
-14 93 -27 123 -31 144 -32 167 -1 11 -3 22 -6 25 -5 4 -21 77 -37 160 -2 14
-9 43 -14 65 -5 22 -11 45 -12 50 -1 6 -7 16 -11 24 -7 10 -6 12 4 6 9 -6 11
-4 5 5 -4 7 -10 23 -11 34 -7 40 -16 81 -21 96 -3 8 -7 22 -8 30 -3 20 -13 70
-21 100 -5 21 -8 40 -13 83 -1 5 -4 6 -8 4 -5 -3 -8 11 -7 31 0 21 -3 42 -7
47 -4 6 -6 21 -5 35 1 14 -2 28 -7 31 -5 4 -11 19 -12 35 -2 16 -6 40 -10 54
-3 14 -8 41 -11 60 -3 19 -8 42 -11 50 -3 8 -7 26 -9 39 -2 13 -6 31 -10 40
-4 9 -8 27 -8 41 -1 14 -4 30 -8 35 -3 6 -4 18 -3 28 2 9 0 17 -4 17 -4 0 -8
6 -8 13 -1 21 -19 119 -23 125 -2 1 -4 11 -5 22 -1 11 -4 21 -5 23 -1 1 -3 13
-4 27 -1 14 -4 30 -8 35 -3 6 -9 30 -13 55 -8 56 -13 84 -16 90 -1 3 -3 10 -4
15 -2 6 -4 12 -5 15 -3 10 -11 46 -16 79 -2 19 -6 37 -8 40 -3 4 -7 26 -11 51
-4 24 -11 52 -16 62 -12 23 -11 30 4 23 6 -4 5 -1 -3 7 -8 7 -15 28 -15 46 1
17 -4 32 -9 32 -5 0 -7 3 -4 6 4 3 2 20 -4 37 -5 18 -11 43 -14 57 -2 14 -6
36 -8 50 -3 14 -5 26 -7 28 -1 1 -3 7 -4 12 -1 6 -4 11 -5 13 -1 1 -4 16 -6
32 -7 57 -17 100 -24 110 -4 6 -6 20 -5 32 1 13 -2 23 -7 23 -5 0 -8 6 -7 13
2 6 -1 28 -6 47 -4 19 -9 44 -11 55 -1 11 -3 20 -4 20 -1 0 -3 9 -5 19 -2 11
-7 31 -11 45 -4 14 -6 30 -5 35 1 4 -3 14 -10 22 -6 7 -8 17 -5 22 3 4 -2 27
-10 51 -8 23 -12 47 -9 52 4 5 3 9 -2 9 -4 0 -9 10 -10 23 -2 23 -10 60 -13
65 -2 1 -3 10 -4 20 -1 9 -5 26 -9 37 -6 19 -8 29 -22 100 -3 17 -9 39 -12 50
-4 11 -7 25 -8 30 -2 27 -28 132 -36 147 -6 11 -4 18 9 23 20 9 73 17 123 19
27 1 35 5 31 15 -3 9 -1 12 6 7 6 -4 40 1 74 10 35 9 72 17 83 19 11 1 32 7
46 13 15 6 30 8 33 5 3 -4 6 -1 6 6 0 7 4 10 9 6 11 -6 62 15 73 30 4 5 8 7 8
2 0 -4 13 -1 29 7 16 9 31 12 35 9 3 -4 6 -1 6 5 0 7 6 12 14 12 7 0 19 7 26
15 7 8 16 12 21 9 5 -3 9 0 9 6 0 6 4 9 8 6 5 -3 16 3 24 12 9 9 40 33 69 52
63 42 220 191 213 202 -3 4 0 8 5 8 6 0 11 4 11 10 0 5 9 21 21 34 12 13 21
27 20 30 0 3 11 17 24 32 14 15 22 30 20 34 -3 5 0 10 5 12 6 2 12 11 13 20 2
9 8 22 14 29 11 14 62 176 67 215 2 11 7 27 12 35 4 8 9 25 10 39 1 14 2 25 3
25 3 0 6 11 15 52 2 12 10 32 16 44 10 17 10 20 -2 13 -10 -6 -11 -5 -1 7 12
15 24 58 26 96 1 12 5 19 9 17 4 -3 8 3 9 13 0 10 3 27 6 38 3 11 5 30 5 42 0
13 4 20 9 17 8 -4 12 17 8 42 0 4 5 11 13 15 11 7 11 9 -1 9 -9 0 -10 4 -4 13
9 11 25 57 28 82 2 16 25 99 32 115 4 8 8 22 9 30 7 40 17 79 30 120 8 25 16
54 17 65 2 11 7 27 10 35 8 18 19 68 20 93 1 9 5 17 9 17 4 0 7 3 6 8 -1 4 2
19 6 33 4 14 8 32 10 40 5 27 18 74 23 89 7 17 9 23 18 65 3 17 7 36 7 43 1 6
6 12 11 12 5 0 7 9 4 20 -3 11 -1 23 5 26 5 3 8 15 5 25 -3 11 0 19 6 19 6 0
8 3 5 6 -4 3 0 22 8 41 9 19 13 37 10 40 -2 3 3 24 13 46 10 23 16 48 14 55
-3 6 -1 12 4 12 6 0 9 10 8 23 -1 12 2 28 7 34 6 7 8 19 5 27 -3 8 -2 16 3 18
5 2 10 17 12 33 2 17 6 33 10 36 5 3 9 17 10 32 1 15 5 27 8 27 3 0 7 10 7 23
2 35 8 62 13 67 5 4 35 116 44 160 2 8 6 22 9 30 8 21 30 122 30 138 0 6 3 12
7 12 3 0 6 8 7 18 1 23 13 92 20 116 3 13 1 16 -7 11 -9 -5 -10 -2 -3 11 11
22 10 50 -2 114 -4 25 -9 52 -10 60 -1 8 -5 22 -8 30 -7 21 -17 60 -23 95 -3
17 -10 31 -14 33 -5 2 -7 9 -4 17 3 7 0 16 -5 20 -6 3 -9 11 -6 16 4 5 1 9 -5
9 -6 0 -9 4 -6 8 3 5 -6 20 -19 34 -13 14 -22 28 -19 30 2 3 -5 13 -16 23 -11
10 -20 22 -20 26 0 4 -13 22 -30 40 -16 18 -27 36 -24 41 3 4 1 8 -4 8 -6 0
-23 12 -39 28 -66 60 -119 102 -131 102 -7 0 -10 5 -7 10 3 6 1 10 -5 10 -11
0 -62 33 -88 57 -7 7 -24 16 -38 19 -13 3 -24 10 -24 15 0 5 -7 9 -15 9 -8 0
-24 5 -35 10 -48 24 -56 27 -72 24 -10 -1 -18 1 -18 6 0 5 -8 7 -17 5 -10 -1
-23 2 -29 6 -6 5 -30 10 -53 12 -22 1 -41 5 -41 10 0 4 -13 7 -30 7 -16 0 -30
4 -30 8 0 4 -12 9 -27 11 -66 8 -3783 9 -3783 1z m2496 -1758 c1 -18 -3 -32
-7 -32 -5 0 -6 -7 -3 -15 4 -8 2 -15 -3 -15 -5 0 -10 -14 -11 -31 -1 -18 -6
-37 -9 -43 -9 -13 -13 -34 -15 -63 0 -13 -5 -23 -10 -23 -6 0 -8 -7 -4 -15 3
-8 0 -15 -6 -15 -6 0 -9 -3 -5 -6 3 -3 0 -26 -8 -50 -7 -24 -11 -44 -8 -44 3
0 1 -6 -5 -12 -5 -7 -12 -26 -15 -43 -3 -16 -15 -64 -27 -105 -11 -41 -23 -86
-26 -100 -2 -14 -7 -32 -11 -40 -9 -21 -9 -20 -18 -65 -4 -22 -10 -44 -14 -50
-3 -5 -6 -20 -7 -33 0 -13 -6 -28 -11 -33 -12 -12 -508 -17 -519 -6 -4 4 -2
13 4 20 7 8 10 16 7 19 -3 3 3 32 14 66 10 34 16 64 13 67 -3 3 0 5 6 5 6 0
11 8 10 18 0 20 6 49 26 117 38 128 49 171 48 178 -1 4 5 24 13 44 8 20 13 38
11 40 -2 3 2 19 9 38 8 18 11 35 8 39 -4 3 -2 6 4 6 6 0 9 10 9 23 -1 12 1 27
6 33 4 6 10 21 12 35 3 13 5 25 7 27 2 2 2 2 13 52 5 19 12 37 16 40 5 3 120
5 257 4 l248 0 1 -32z"/>
</g>
</svg>
